<svg width="44" height="44" viewBox="0 0 44 44" fill="none" xmlns="http://www.w3.org/2000/svg">
<rect width="44" height="44" rx="22" fill="#43936C"/>
<path d="M25.59 22.4V26.47C25.59 26.83 25.55 27.17 25.46 27.48C25.09 28.95 23.87 29.87 22.19 29.87H19.47L16.45 31.88C16 32.19 15.4 31.86 15.4 31.32V29.87C14.38 29.87 13.53 29.53 12.94 28.94C12.34 28.34 12 27.49 12 26.47V22.4C12 20.5 13.18 19.19 15 19.02C15.13 19.01 15.26 19 15.4 19H22.19C24.23 19 25.59 20.36 25.59 22.4Z" fill="white"/>
<path d="M27.75 25.6C29.02 25.6 30.09 25.18 30.83 24.43C31.58 23.69 32 22.62 32 21.35V16.25C32 13.9 30.1 12 27.75 12H19.25C16.9 12 15 13.9 15 16.25V17C15 17.28 15.22 17.5 15.5 17.5H22.19C24.9 17.5 27.09 19.69 27.09 22.4V25.1C27.09 25.38 27.31 25.6 27.59 25.6H27.75Z" fill="white"/>
</svg>
