<svg width="16" height="18" viewBox="0 0 16 18" fill="none" xmlns="http://www.w3.org/2000/svg">
<path d="M14.2584 3.87502L9.30835 1.01669C8.50002 0.55002 7.50002 0.55002 6.68335 1.01669L1.74168 3.87502C0.933349 4.34169 0.43335 5.20835 0.43335 6.15002V11.85C0.43335 12.7834 0.933349 13.65 1.74168 14.125L6.69168 16.9834C7.50002 17.45 8.50002 17.45 9.31668 16.9834L14.2667 14.125C15.075 13.6584 15.575 12.7917 15.575 11.85V6.15002C15.5667 5.20835 15.0667 4.35002 14.2584 3.87502ZM7.37502 5.45835C7.37502 5.11669 7.65835 4.83335 8.00002 4.83335C8.34168 4.83335 8.62502 5.11669 8.62502 5.45835V9.83335C8.62502 10.175 8.34168 10.4584 8.00002 10.4584C7.65835 10.4584 7.37502 10.175 7.37502 9.83335V5.45835ZM8.76668 12.8584C8.72502 12.9584 8.66668 13.05 8.59168 13.1334C8.43335 13.2917 8.22502 13.375 8.00002 13.375C7.89168 13.375 7.78335 13.35 7.68335 13.3084C7.57502 13.2667 7.49168 13.2084 7.40835 13.1334C7.33335 13.05 7.27502 12.9584 7.22502 12.8584C7.18335 12.7584 7.16668 12.65 7.16668 12.5417C7.16668 12.325 7.25002 12.1084 7.40835 11.95C7.49168 11.875 7.57502 11.8167 7.68335 11.775C7.99168 11.6417 8.35835 11.7167 8.59168 11.95C8.66668 12.0334 8.72502 12.1167 8.76668 12.225C8.80835 12.325 8.83335 12.4334 8.83335 12.5417C8.83335 12.65 8.80835 12.7584 8.76668 12.8584Z" fill="white"/>
</svg>
