<svg width="44" height="44" viewBox="0 0 44 44" fill="none" xmlns="http://www.w3.org/2000/svg">
<rect x="0.5" y="0.5" width="43" height="43" rx="11.5" fill="white"/>
<path d="M27.5 19.33V24.67C27.5 26.223 26.9545 27.1846 26.2163 27.6107C25.4778 28.037 24.3718 28.0283 23.0295 27.2567C23.0294 27.2566 23.0293 27.2566 23.0292 27.2565L21.7511 26.5176C21.751 26.5175 21.7509 26.5175 21.7508 26.5174C21.5954 26.4271 21.5 26.2621 21.5 26.08V17.92C21.5 17.7379 21.5954 17.573 21.7507 17.4826C21.7508 17.4825 21.7509 17.4824 21.7511 17.4824L23.0292 16.7435C23.0294 16.7434 23.0296 16.7433 23.0297 16.7432C24.3719 15.9717 25.4778 15.963 26.2163 16.3893C26.9545 16.8154 27.5 17.777 27.5 19.33Z" fill="#1993AB" stroke="#1993AB"/>
<path d="M20 18.79V25.22C20 25.61 19.58 25.85 19.25 25.65L18.15 25.01C15.28 23.36 15.28 20.64 18.15 18.99L19.25 18.35C19.58 18.16 20 18.4 20 18.79Z" fill="#1993AB"/>
<rect x="0.5" y="0.5" width="43" height="43" rx="11.5" stroke="#1993AB"/>
</svg>
