<svg width="18" height="16" viewBox="0 0 18 16" fill="none" xmlns="http://www.w3.org/2000/svg">
<path d="M13.1667 0.0250244H4.83342C2.33341 0.0250244 0.666748 1.69169 0.666748 4.19169V9.19169C0.666748 11.6917 2.33341 13.3584 4.83342 13.3584V15.1334C4.83342 15.8 5.57508 16.2 6.12508 15.825L9.83342 13.3584H13.1667C15.6667 13.3584 17.3334 11.6917 17.3334 9.19169V4.19169C17.3334 1.69169 15.6667 0.0250244 13.1667 0.0250244ZM9.00008 10.1667C8.65008 10.1667 8.37508 9.88336 8.37508 9.54169C8.37508 9.20002 8.65008 8.91669 9.00008 8.91669C9.35008 8.91669 9.62508 9.20002 9.62508 9.54169C9.62508 9.88336 9.35008 10.1667 9.00008 10.1667ZM10.0501 6.70836C9.72508 6.92502 9.62508 7.06669 9.62508 7.30002V7.47502C9.62508 7.81669 9.34175 8.10002 9.00008 8.10002C8.65842 8.10002 8.37508 7.81669 8.37508 7.47502V7.30002C8.37508 6.33336 9.08342 5.85836 9.35008 5.67502C9.65841 5.46669 9.75842 5.32502 9.75842 5.10836C9.75842 4.69169 9.41675 4.35002 9.00008 4.35002C8.58342 4.35002 8.24175 4.69169 8.24175 5.10836C8.24175 5.45002 7.95842 5.73336 7.61675 5.73336C7.27508 5.73336 6.99175 5.45002 6.99175 5.10836C6.99175 4.00002 7.89175 3.10002 9.00008 3.10002C10.1084 3.10002 11.0084 4.00002 11.0084 5.10836C11.0084 6.05836 10.3084 6.53336 10.0501 6.70836Z" fill="#AEAEAE"/>
</svg>
