<svg width="44" height="44" viewBox="0 0 44 44" fill="none" xmlns="http://www.w3.org/2000/svg">
<rect x="0.5" y="0.5" width="43" height="43" rx="11.5" fill="white"/>
<path d="M16.5 24.67V19.33C16.5 17.777 17.0455 16.8154 17.7837 16.3893C18.5222 15.963 19.628 15.9717 20.9702 16.7431C20.9704 16.7432 20.9706 16.7433 20.9708 16.7435L22.2489 17.4824C22.2491 17.4825 22.2492 17.4825 22.2493 17.4826C22.4046 17.573 22.5 17.7379 22.5 17.92V26.08C22.5 26.2621 22.4046 26.4271 22.2492 26.5174C22.2491 26.5175 22.249 26.5175 22.2489 26.5176L20.9708 27.2565C20.9707 27.2566 20.9706 27.2566 20.9705 27.2567C19.6282 28.0283 18.5222 28.037 17.7837 27.6107C17.0455 27.1846 16.5 26.223 16.5 24.67Z" fill="#1993AB" stroke="#1993AB"/>
<path d="M24 18.79V25.22C24 25.61 24.42 25.85 24.75 25.65L25.85 25.01C28.72 23.36 28.72 20.64 25.85 18.99L24.75 18.35C24.42 18.16 24 18.4 24 18.79Z" fill="#1993AB"/>
<rect x="0.5" y="0.5" width="43" height="43" rx="11.5" stroke="#1993AB"/>
</svg>
